<?xml version="1.0" standalone="no"?>
<svg xmlns="http://www.w3.org/2000/svg" viewBox="0 0 140.897 30.232" width="140.897" height="30.232"><g fill="#000000" color="#000000" transform="translate(0, 0) scale(0.29)"><svg width="94.594" height="100.0" x="0.0" y="0.0" viewBox="0 0 94.594 100"><path fill="currentColor" d="M92.699,99.598C92.164,99.866,91.495,100,90.96,100c-1.337,0-2.541-0.669-3.209-1.872L71.168,65.898  L25.699,62.02L6.843,98.127C6.174,99.331,4.837,100,3.633,100c-0.668,0-1.204-0.134-1.738-0.401  c-1.739-0.936-2.407-3.075-1.471-4.814l17.519-33.433L1.36,59.88c0,0,0.268-3.344,0.669-7.489c0.401-4.146,4.012-7.222,8.158-6.82  l49.48,4.279c2.809,0.268,5.082,2.006,6.151,4.279c-0.4-1.203-0.534-2.407-0.268-3.61l8.827-44.266  c0.668-4.146,4.547-6.82,8.692-6.151c4.012,0.802,7.355,1.337,7.355,1.337l-9.629,49.615l-2.273,13.373L94.17,94.784  C95.106,96.523,94.438,98.663,92.699,99.598z"></path></svg></g><line x1="39.433" y1="1" x2="39.433" y2="28" stroke="#000000" stroke-linecap="round"></line><path fill="#000000" fill-rule="nonzero" d="M6.24 2.90Q5.74 4.01 4.75 4.73Q3.77 5.45 2.62 5.45Q1.46 5.45 0.73 4.78Q0 4.10 0 2.78Q0 1.46 1.18 0.76Q2.35 0.05 3.94 0.05L3.94 0.05L13.46 0.05Q13.54 0.38 13.54 0.70L13.54 0.70Q13.54 1.51 13.01 2.21Q12.48 2.90 11.40 2.90L11.40 2.90Q11.35 2.90 11.33 2.90L11.33 2.90L6.24 2.90ZM4.68 2.90L3.12 2.90Q2.23 2.90 2.23 3.53L2.23 3.53Q2.23 4.03 3 4.03L3 4.03Q3.36 4.03 3.85 3.72Q4.34 3.41 4.68 2.90L4.68 2.90ZM8.09 13.70Q7.49 18.41 3.84 18.41L3.84 18.41Q2.54 18.41 1.76 17.62Q0.98 16.82 0.98 15.62L0.98 15.62Q0.98 12.82 5.26 10.82L5.26 10.82L6.10 4.44Q7.08 3.82 8.38 3.82L8.38 3.82Q8.98 3.82 9.53 3.94L9.53 3.94L8.09 13.70ZM4.99 12.86Q2.76 14.16 2.76 15.36L2.76 15.36Q2.76 16.22 3.60 16.22L3.60 16.22Q4.56 16.22 4.80 14.38L4.80 14.38L4.99 12.86ZM15.58 6.77L15.58 6.77Q17.78 6.77 19.26 8.18Q20.74 9.60 20.74 11.64L20.74 11.64Q20.74 14.74 18.92 16.60Q17.11 18.46 14.54 18.46Q11.98 18.46 10.48 16.99Q8.98 15.53 8.98 13.37L8.98 13.37Q8.98 10.34 10.82 8.57L10.82 8.57Q12.70 6.77 15.58 6.77ZM15.11 8.71Q13.97 8.71 13.20 10.01Q12.43 11.30 12.36 13.27L12.36 13.27Q12.36 14.66 12.92 15.58Q13.49 16.49 14.64 16.49Q15.79 16.49 16.57 15.22Q17.35 13.94 17.35 12.31Q17.35 10.68 16.80 9.72L16.80 9.72Q16.25 8.71 15.11 8.71ZM24.41 6.74L24.41 6.74Q25.97 6.74 26.23 7.54L26.23 7.54Q27.36 6.74 29.09 6.74Q30.82 6.74 32.06 8.16Q33.31 9.58 33.31 11.47L33.31 11.47Q33.31 11.74 33.29 12.02L33.29 12.02Q33.02 15.17 31.18 16.81Q29.33 18.46 26.35 18.46L26.35 18.46Q25.68 18.46 24.89 18.29L24.89 18.29L24.12 24.89L20.98 24.89Q22.51 11.66 23.04 6.94L23.04 6.94Q23.54 6.74 24.41 6.74ZM29.93 11.64L29.93 11.64Q29.93 10.58 29.45 9.77Q28.97 8.95 27.96 8.95L27.96 8.95Q26.59 8.95 25.87 10.73L25.87 10.73Q25.39 14.28 25.32 14.86L25.32 14.86Q25.30 15.58 25.78 15.94Q26.26 16.30 26.95 16.30L26.95 16.30Q28.18 16.30 28.97 15.19L28.97 15.19Q29.93 13.82 29.93 11.64ZM45.50 6.22L43.70 6.22Q44.42 5.14 44.42 4.20Q44.42 3.26 43.90 2.71Q43.37 2.16 42.50 2.16Q41.64 2.16 41.11 2.58Q40.58 3 40.58 3.90Q40.58 4.80 41.83 7.13Q43.08 9.46 43.42 10.13L43.42 10.13Q44.33 11.95 44.33 13.66L44.33 13.66Q44.33 15.79 42.78 17.12Q41.23 18.46 39.13 18.46Q37.03 18.46 35.83 17.15Q34.63 15.84 34.63 14.09L34.63 14.09Q34.63 10.85 38.64 8.74L38.64 8.74Q37.01 5.52 37.01 4.25L37.01 4.25Q37.01 2.47 38.44 1.24Q39.86 0 41.94 0Q44.02 0 45.12 1.06Q46.22 2.11 46.22 3.74L46.22 3.74Q46.22 4.82 45.50 6.22L45.50 6.22ZM37.42 15.58Q38.06 16.27 38.99 16.27Q39.91 16.27 40.43 15.73Q40.94 15.19 40.94 14.14L40.94 14.14Q40.94 13.18 40.20 11.78L40.20 11.78Q40.10 11.59 39.84 11.08Q39.58 10.56 39.46 10.34L39.46 10.34Q36.77 11.74 36.77 13.85L36.77 13.85Q36.77 14.93 37.42 15.58L37.42 15.58ZM48 0.64Q48.55 0.07 49.34 0.07Q50.14 0.07 50.70 0.64Q51.26 1.20 51.26 1.99Q51.26 2.78 50.70 3.34Q50.14 3.89 49.34 3.89Q48.55 3.89 48 3.34Q47.45 2.78 47.45 1.99Q47.45 1.20 48 0.64ZM47.02 7.68Q47.26 7.25 47.93 7.02Q48.60 6.79 49.26 6.79Q49.92 6.79 50.42 6.96L50.42 6.96Q49.49 14.18 49.49 14.26L49.49 14.26Q49.37 14.74 49.37 15.06Q49.37 15.38 49.42 15.62L49.42 15.62Q49.51 16.25 50.29 16.25Q51.07 16.25 51.73 15.23Q52.39 14.21 52.73 12.91L52.73 12.91Q52.90 13.01 53.26 13.49Q53.62 13.97 53.69 14.21L53.69 14.21Q53.21 16.13 52.06 17.30L52.06 17.30Q50.90 18.48 49.30 18.48Q47.69 18.48 46.91 17.69Q46.13 16.90 46.13 15.65L46.13 15.65Q46.13 15.38 46.15 15.10L46.15 15.10L47.02 7.68ZM54.95 18.48Q53.47 18.48 52.63 17.65Q51.79 16.82 51.79 15.38L51.79 15.38Q51.79 15 53.09 3.98L53.09 3.98Q53.42 1.15 54.89 0.41L54.89 0.41Q55.56 0.05 56.50 0.05L56.50 0.05Q59.66 0.05 59.66 2.98L59.66 2.98Q59.66 3.22 59.64 3.48L59.64 3.48Q59.40 6.70 55.61 10.03L55.61 10.03Q55.49 11.21 55.34 12.31L55.34 12.31Q55.06 14.78 55.06 15.05L55.06 15.05Q55.06 16.30 56.14 16.30L56.14 16.30Q57.31 16.30 58.33 14.94Q59.35 13.58 59.90 11.47L59.90 11.47Q60.12 11.54 60.50 11.87Q60.89 12.19 61.03 12.43L61.03 12.43Q60.65 14.42 59.30 16.25L59.30 16.25Q58.63 17.18 57.60 17.78L57.60 17.78Q56.42 18.48 54.95 18.48ZM55.94 6.91L55.87 7.63Q58.08 5.21 58.08 3.29L58.08 3.29Q58.08 2.14 57.22 2.14L57.22 2.14Q56.66 2.18 56.48 2.86Q56.30 3.53 56.15 5.04Q55.99 6.55 55.94 6.91L55.94 6.91ZM62.29 18.48Q60.82 18.48 59.98 17.65Q59.14 16.82 59.14 15.38L59.14 15.38Q59.14 15 60.43 3.98L60.43 3.98Q60.77 1.15 62.23 0.41L62.23 0.41Q62.90 0.05 63.84 0.05L63.84 0.05Q67.01 0.05 67.01 2.98L67.01 2.98Q67.01 3.22 66.98 3.48L66.98 3.48Q66.74 6.70 62.95 10.03L62.95 10.03Q62.83 11.21 62.69 12.31L62.69 12.31Q62.40 14.78 62.40 15.05L62.40 15.05Q62.40 16.30 63.48 16.30L63.48 16.30Q64.66 16.30 65.68 14.94Q66.70 13.58 67.25 11.47L67.25 11.47Q67.46 11.54 67.85 11.87Q68.23 12.19 68.38 12.43L68.38 12.43Q67.99 14.42 66.65 16.25L66.65 16.25Q65.98 17.18 64.94 17.78L64.94 17.78Q63.77 18.48 62.29 18.48ZM63.29 6.91L63.22 7.63Q65.42 5.21 65.42 3.29L65.42 3.29Q65.42 2.14 64.56 2.14L64.56 2.14Q64.01 2.18 63.83 2.86Q63.65 3.53 63.49 5.04Q63.34 6.55 63.29 6.91L63.29 6.91ZM77.09 18.43L77.09 18.43Q74.88 18.43 74.16 16.90L74.16 16.90Q72.91 18.46 70.96 18.46Q69 18.46 67.67 17.14Q66.34 15.82 66.34 13.66L66.34 13.66Q66.34 10.51 68.18 8.64Q70.03 6.77 72.86 6.77L72.86 6.77Q72.94 6.77 73.01 6.77L73.01 6.77Q74.21 6.77 75.22 7.18L75.22 7.18Q75.86 6.77 76.79 6.77Q77.71 6.77 78.12 7.01L78.12 7.01Q77.90 8.78 77.66 10.50Q77.42 12.22 77.33 12.94L77.33 12.94Q77.11 14.57 77.11 15.29L77.11 15.29Q77.11 16.25 77.88 16.25L77.88 16.25Q78.48 16.25 79.15 15.44Q79.82 14.64 80.33 12.91L80.33 12.91Q81.02 13.54 81.29 14.30L81.29 14.30Q80.59 16.58 79.42 17.51Q78.24 18.43 77.09 18.43ZM73.22 8.64L73.22 8.64Q71.69 8.64 70.79 9.80Q69.89 10.97 69.72 13.27L69.72 13.27Q69.70 13.49 69.70 13.68L69.70 13.68Q69.70 14.86 70.26 15.55Q70.82 16.25 71.71 16.25L71.71 16.25Q73.22 16.25 73.99 14.11L73.99 14.11L74.57 8.93Q73.87 8.64 73.22 8.64ZM89.57 10.97L89.57 10.97Q91.46 12.36 91.46 14.26Q91.46 16.15 89.98 17.30Q88.49 18.46 86.23 18.46L86.23 18.46Q84.77 18.46 83.80 17.72Q82.82 16.99 82.82 15.91Q82.82 14.83 83.54 14.20Q84.26 13.56 85.34 13.42L85.34 13.42Q84.84 14.14 84.84 14.80Q84.84 15.46 85.30 15.86L85.30 15.86Q85.75 16.27 86.45 16.27Q87.14 16.27 87.60 15.76Q88.06 15.24 88.06 14.57L88.06 14.57Q88.06 13.46 87.02 12.60L87.02 12.60Q86.40 12.10 85.68 11.65Q84.96 11.21 84.91 11.18L84.91 11.18Q84.82 11.11 84.72 11.06L84.72 11.06Q84.29 11.57 83.47 12.44Q82.66 13.32 82.18 13.85L82.18 13.85Q80.83 15.31 80.66 16.30L80.66 16.30Q80.62 16.49 80.62 17.03Q80.62 17.57 80.94 18.14Q81.26 18.72 81.72 19.01Q82.18 19.30 82.62 19.48Q83.06 19.66 83.39 19.73Q83.71 19.80 83.71 19.82L83.71 19.82Q83.71 19.99 83.18 20.21L83.18 20.21Q82.20 20.57 81.13 20.57Q80.06 20.57 79.06 19.80L79.06 19.80Q77.69 18.74 77.69 16.99L77.69 16.99Q77.69 15.91 78.24 14.86L78.24 14.86Q79.22 12.98 82.85 9.72L82.85 9.72Q81.96 8.83 81.96 7.82Q81.96 6.82 82.72 6.12Q83.47 5.42 84.50 5.42L84.50 5.42Q85.44 5.42 86.14 6.17L86.14 6.17Q86.59 6.67 86.59 7.44Q86.59 8.21 86.09 9.17L86.09 9.17Q88.66 10.32 89.57 10.97ZM84.36 8.26L84.36 8.26Q84.94 7.66 84.94 7.39L84.94 7.39Q84.94 6.79 84.41 6.74L84.41 6.74Q83.81 6.74 83.81 7.42L83.81 7.42Q83.81 7.82 84.36 8.26Z" transform="translate(49.433, 5.344)"></path></svg>